<svg id="visual" viewBox="0 0 900 600" width="900" height="600" xmlns="http://www.w3.org/2000/svg" xmlns:xlink="http://www.w3.org/1999/xlink" version="1.1"><rect x="0" y="0" width="900" height="600" fill="#5000ca"></rect><path d="M0 363L129 389L257 391L386 392L514 377L643 358L771 376L900 387L900 601L771 601L643 601L514 601L386 601L257 601L129 601L0 601Z" fill="#5000ca"></path><path d="M0 467L129 437L257 444L386 408L514 469L643 397L771 447L900 457L900 601L771 601L643 601L514 601L386 601L257 601L129 601L0 601Z" fill="#d10095"></path><path d="M0 438L129 489L257 478L386 498L514 501L643 457L771 508L900 450L900 601L771 601L643 601L514 601L386 601L257 601L129 601L0 601Z" fill="#ff0062"></path><path d="M0 518L129 521L257 507L386 508L514 498L643 529L771 499L900 534L900 601L771 601L643 601L514 601L386 601L257 601L129 601L0 601Z" fill="#ff753d"></path><path d="M0 573L129 553L257 569L386 550L514 542L643 527L771 549L900 540L900 601L771 601L643 601L514 601L386 601L257 601L129 601L0 601Z" fill="#ffba3a"></path></svg>