<svg width="90" height="60" viewBox="0 0 90 60" fill="none" xmlns="http://www.w3.org/2000/svg">
<path d="M81.5625 30H8.4375C6.19974 30 4.05362 30.6773 2.47129 31.8829C0.888948 33.0885 0 34.7236 0 36.4286C0 38.1335 0.888948 39.7687 2.47129 40.9743C4.05362 42.1798 6.19974 42.8571 8.4375 42.8571H81.5625C83.8003 42.8571 85.9464 42.1798 87.5287 40.9743C89.1111 39.7687 90 38.1335 90 36.4286C90 34.7236 89.1111 33.0885 87.5287 31.8829C85.9464 30.6773 83.8003 30 81.5625 30V30ZM84.375 47.1429H5.625C4.87908 47.1429 4.16371 47.3686 3.63626 47.7705C3.10882 48.1723 2.8125 48.7174 2.8125 49.2857V51.4286C2.8125 53.7019 3.99776 55.882 6.10755 57.4895C8.21733 59.0969 11.0788 60 14.0625 60H75.9375C78.9212 60 81.7827 59.0969 83.8924 57.4895C86.0022 55.882 87.1875 53.7019 87.1875 51.4286V49.2857C87.1875 48.7174 86.8912 48.1723 86.3637 47.7705C85.8363 47.3686 85.1209 47.1429 84.375 47.1429ZM10.3078 25.7143H79.6922C85.7689 25.7143 89.2934 19.8348 85.8129 15.5518C78.75 6.85714 63.2021 0.0133929 45 0C26.7996 0.0133929 11.25 6.85714 4.18711 15.5504C0.703125 19.8335 4.23105 25.7143 10.3078 25.7143ZM67.5 10.7143C68.0563 10.7143 68.6 10.84 69.0625 11.0754C69.5251 11.3109 69.8855 11.6456 70.0984 12.0371C70.3113 12.4287 70.367 12.8595 70.2585 13.2752C70.1499 13.6909 69.8821 14.0727 69.4887 14.3724C69.0954 14.6721 68.5943 14.8761 68.0487 14.9588C67.5031 15.0415 66.9376 14.9991 66.4237 14.8369C65.9098 14.6747 65.4705 14.4 65.1615 14.0477C64.8524 13.6953 64.6875 13.281 64.6875 12.8571C64.6875 12.2888 64.9838 11.7438 65.5113 11.3419C66.0387 10.9401 66.7541 10.7143 67.5 10.7143V10.7143ZM45 6.42857C45.5563 6.42857 46.1 6.55425 46.5625 6.78971C47.0251 7.02517 47.3855 7.35984 47.5984 7.75139C47.8113 8.14295 47.867 8.57381 47.7585 8.98948C47.6499 9.40515 47.3821 9.78697 46.9887 10.0867C46.5954 10.3863 46.0943 10.5904 45.5487 10.6731C45.0031 10.7558 44.4376 10.7134 43.9237 10.5512C43.4098 10.389 42.9705 10.1143 42.6615 9.76194C42.3525 9.40954 42.1875 8.99525 42.1875 8.57143C42.1875 8.00311 42.4838 7.45806 43.0113 7.0562C43.5387 6.65434 44.2541 6.42857 45 6.42857V6.42857ZM22.5 10.7143C23.0563 10.7143 23.6 10.84 24.0625 11.0754C24.5251 11.3109 24.8855 11.6456 25.0984 12.0371C25.3113 12.4287 25.367 12.8595 25.2585 13.2752C25.1499 13.6909 24.8821 14.0727 24.4887 14.3724C24.0954 14.6721 23.5943 14.8761 23.0487 14.9588C22.5031 15.0415 21.9376 14.9991 21.4237 14.8369C20.9098 14.6747 20.4705 14.4 20.1615 14.0477C19.8525 13.6953 19.6875 13.281 19.6875 12.8571C19.6875 12.2888 19.9838 11.7438 20.5113 11.3419C21.0387 10.9401 21.7541 10.7143 22.5 10.7143V10.7143Z" fill="#610505"/>
</svg>
