<svg id="visual" viewBox="0 0 900 600" width="900" height="600" xmlns="http://www.w3.org/2000/svg" xmlns:xlink="http://www.w3.org/1999/xlink" version="1.1"><rect x="0" y="0" width="900" height="600" fill="#ffba3a"></rect><path d="M0 520L21.5 509.2C43 498.3 86 476.7 128.8 474.7C171.7 472.7 214.3 490.3 257.2 494.8C300 499.3 343 490.7 385.8 474C428.7 457.3 471.3 432.7 514.2 429.5C557 426.3 600 444.7 642.8 449.8C685.7 455 728.3 447 771.2 433.5C814 420 857 401 878.5 391.5L900 382L900 601L878.5 601C857 601 814 601 771.2 601C728.3 601 685.7 601 642.8 601C600 601 557 601 514.2 601C471.3 601 428.7 601 385.8 601C343 601 300 601 257.2 601C214.3 601 171.7 601 128.8 601C86 601 43 601 21.5 601L0 601Z" fill="#000000" stroke-linecap="round" stroke-linejoin="miter"></path></svg>